# xmcd
#
# Track frame offsets:
#	150
#	15392
#	32818
#	53770
#	70108
#	99514
#	120961
#	141099
#	163136
#	179034
#	199169
#	218001
#
# Disc length: 3175 seconds
#
# Revision: 1
# Processed by: cddbd v1.5.1PL0 Copyright (c) Steve Scherf et al.
# Submitted via: audiograbber 1.83.01
#
DISCID=a30c650c
DTITLE=Pinetop Perkins - Ladies Man
DYEAR=2004
DGENRE=Blues
TTITLE0=Meanest Woman
TTITLE1=Since I Lost My Baby
TTITLE2=Big Fat Mama
TTITLE3=He's Got Me Goin'
TTITLE4=Chains of Love
TTITLE5=Kansas City
TTITLE6=Pinetop's New Boogie Woogie
TTITLE7=How Long
TTITLE8=Hey Mr Pinetop Perkins
TTITLE9=Trouble In Mind
TTITLE10=Careless Love
TTITLE11=Chicken Shack
EXTD=
EXTT0=
EXTT1=
EXTT2=
EXTT3=
EXTT4=
EXTT5=
EXTT6=
EXTT7=
EXTT8=
EXTT9=
EXTT10=
EXTT11=
PLAYORDER=
